<?xml version="1.0" encoding="utf-8"?>
<!-- Generator: Adobe Illustrator 22.0.1, SVG Export Plug-In . SVG Version: 6.00 Build 0)  -->
<svg version="1.1" id="Layer_1" xmlns="http://www.w3.org/2000/svg" xmlns:xlink="http://www.w3.org/1999/xlink" x="0px" y="0px"
	 viewBox="0 0 273 68.6" style="enable-background:new 0 0 273 68.6;" xml:space="preserve">
<style type="text/css">
	.st0{fill:#C42126;}
</style>
<g>
	<g>
		<path class="st0" d="M20.5,54.3C9.3,54.3,0,46.6,0,36.7V3c0-1.8,1.7-3,3.4-3c4.8,0,9.2,3.5,9.2,7.9v12.7c3.1-1.8,6.9-2.8,9.7-2.8
			h12.6c11.1,0,20.4,7.8,20.4,17.7v1.1c0,9.9-9.3,17.7-20.4,17.7H20.5z M34.1,28H23.2c-6.7,0-10.5,3.7-10.5,8.2v0.5
			c0,4.1,3.6,7.6,8.6,7.6h12.8c5,0,8.6-3.4,8.6-7.6v-1.1C42.7,31.4,39.1,28,34.1,28z"/>
		<path class="st0" d="M74.8,54.3c-11.2,0-20.5-7.5-20.5-17.2V36c0-9.6,9.3-17.2,20.5-17.2h14.4c11.1,0,20.4,7.5,20.4,17.2v1.1
			c0,9.6-9.3,17.2-20.4,17.2H74.8z M88.4,28.8H75.5c-5.1,0-8.6,3.3-8.6,7.3v1.1c0,4,3.6,7.3,8.6,7.3h12.8c5,0,8.6-3.3,8.6-7.3v-1.1
			C97,32.1,93.3,28.8,88.4,28.8z"/>
		<path class="st0" d="M129,54.3c-11.2,0-20.5-7.8-20.5-17.7v-1c0-9.9,9.3-17.7,20.5-17.7h12.6c2.8,0,6.6,1,9.6,2.8V7.9
			c0-4.4,4.4-7.9,9.3-7.9c1.7,0,3.3,1.2,3.3,3v33.7c0,9.9-9.3,17.7-20.4,17.7H129V54.3z M140.6,28h-10.8c-5.1,0-8.6,3.4-8.6,7.6v1.1
			c0,4.1,3.6,7.6,8.6,7.6h12.8c5,0,8.6-3.4,8.6-7.6v-0.5C151.2,31.7,147.4,28,140.6,28z"/>
		<path class="st0" d="M184,54.3c-11.2,0-20.5-7.5-20.5-17.2V36c0-9.6,9.3-17.2,20.5-17.2h14.4c11.1,0,20.4,7.5,20.4,17.2v1.1
			c0,9.6-9.3,17.2-20.4,17.2H184z M197.6,28.8h-12.8c-5.1,0-8.6,3.3-8.6,7.3v1.1c0,4,3.6,7.3,8.6,7.3h12.8c5,0,8.6-3.3,8.6-7.3v-1.1
			C206.2,32.1,202.6,28.8,197.6,28.8z"/>
		<path class="st0" d="M250.8,55.2h-12.6c-11.2,0-20.5-7.8-20.5-17.6v-1.1c0-9.8,9.3-17.6,20.5-17.6h14.4c11.1,0,20.4,7.8,20.4,17.6
			V51c0,9.8-9.3,17.6-20.4,17.6h-17.7c-4.1,0-8.6-3.5-8.6-7.1c0-1.8,1.6-3,3.3-3h22.1c4.3,0,7.6-2.6,8.4-6
			C257.2,54.2,253.5,55.2,250.8,55.2z M251.8,29H239c-5.1,0-8.6,3.4-8.6,7.5v1.1c0,4.1,3.6,7.5,8.6,7.5h10.8
			c6.8,0,10.6-3.7,10.6-8.1v-0.5C260.4,32.4,256.8,29,251.8,29z"/>
	</g>
</g>
</svg>
